<svg viewBox="0 0 179.14 25.19" xmlns="http://www.w3.org/2000/svg"><g fill="#fff"><path d="m171.96 7.26v1.2h1.2v1.2h-1.2v1.2h-1.2v1.2h-1.2v-1.2h-1.2v-2.39h1.2v-1.2h2.39m1.21-1.21h-4.79v1.2h-1.2v4.79h1.2v1.2h3.6v-1.2h1.2v-1.2h1.2v-3.6h-1.2v-1.2z"/><path d="m176.74 7.26v1.2h1.2v2.39h-3.59v-3.59zm1.2-1.2h-4.79v5.99h5.99v-4.79h-1.2z"/><path d="m174.35 10.85v2.39h-2.39v-2.39zm1.2-1.2h-4.79v4.79h4.79z"/><path d="m164.79 10.85v4.78h-1.2v-1.2h-1.2v-2.39h1.2v-1.2h1.2m1.2-1.19h-3.6v1.2h-1.2v4.79h1.2v1.2h3.6v-7.18z"/><path d="m171.96 13.24v3.59h-1.2v-1.2h-2.39v-2.39zm1.2-1.2h-5.99v4.79h2.39v1.2h3.6z"/><path d="m167.18 14.43v1.2h-1.2v-1.2zm1.2-1.2h-3.6v3.6h3.6z"/><path d="m176.74 12.04v1.2h1.2v2.39h-1.2v1.2h-2.39v-1.2h-1.2v-1.2h1.2v-1.2h1.2v-1.2h1.2m1.19-1.19h-3.6v1.2h-1.2v1.2h-1.2v3.6h1.2v1.2h4.79v-1.2h1.2v-4.79h-1.2v-1.2z"/><path d="m165.99 15.63v3.59h-1.2v-3.59zm1.2-1.2h-3.6v5.99h3.6z"/><path d="m164.79 19.21v3.59h-1.2v-3.59zm1.2-1.2h-3.6v5.99h3.6z"/><path d="m169.57 19.21v1.2h1.2v1.2h-3.59v-1.2h-1.2v-1.2zm1.2-1.2h-5.99v3.6h1.2v1.2h5.99v-3.6h-1.2z"/><path d="m163.6 22.8v1.2h-1.2v-1.2zm1.2-1.2h-3.6v3.6h3.6z"/></g><path d="m162.4 22.8h1.2v1.2h-1.2z"/><path d="m169.57 19.21h-1.19-1.2-1.19v1.2h1.19v1.19h1.2 1.19 1.2v-1.19h-1.2z"/><path d="m163.6 20.41v1.19 1.2h1.19v-1.2-1.19-1.2h-1.19z"/><path d="m165.99 16.82v-1.19h-1.2v1.19 1.2 1.19h1.2v-1.19z"/><path d="m173.16 14.43v1.2h1.19v1.19h1.2 1.19v-1.19h1.2v-1.2-1.19h-1.2v-1.2h-1.19v1.2h-1.2v1.19z"/><path d="m165.99 14.43h1.2v1.2h-1.2z"/><path d="m169.57 13.24h-1.19v1.19 1.2h1.19 1.2v1.19h1.19v-1.19-1.2-1.19h-1.19z"/><path d="m164.79 13.24v-1.2-1.19h-1.19v1.19h-1.2v1.2 1.19h1.2v1.2h1.19v-1.2z"/><path d="m171.96 10.85v1.19 1.2h1.2 1.19v-1.2-1.19h-1.19z"/><path d="m176.74 8.46v-1.2h-1.19-1.2v1.2 1.19 1.2h1.2 1.19 1.2v-1.2-1.19z"/><path d="m173.16 9.65v-1.19h-1.2v-1.2h-1.19-1.2v1.2h-1.19v1.19 1.2h1.19v1.19h1.2v-1.19h1.19v-1.2z"/><path d="m6 9.59v2.4h1.2v1.2h-1.2v9.6h1.2v1.19h-6v-1.19h1.19v-8.4h-1.19v-1.2h1.19v-1.2h1.2v-1.2h1.2v-1.2h1.2m6.01 1.2v1.2h1.2v2.4h-3.6v-2.4h-2.4v-1.2zm-4.8-2.4h-3.6v1.2s0 0 0 0h-1.2v1.2s0 0 0 0h-1.2v1.2s-1.19 0-1.19 0v3.6h1.19v6h-1.2v3.59h8.4v-3.59h-1.2v-7.2h1.2v1.2h6v-4.8h-1.2v-1.2h-6z" fill="#fff"/><path d="m25.19 10.79v1.2h1.2v1.2h1.2v2.4h-9.6v3.6h1.2v2.4h1.2v1.2h4.8v1.19h-7.2v-1.19h-1.2v-1.2h-1.2v-2.4h-1.19v-3.6h1.19v-2.4h1.2v-1.2h1.2v-1.2zm-7.2 3.61h6v-1.2h-1.2v-1.2h-3.6v1.2h-1.2zm9.61 6v1.2h-1.2v-1.2zm-1.21 1.2v1.2h-1.2v-1.2zm0-12.01h-9.6v1.2s0 0 0 0h-1.2v1.2s0 0 0 0h-1.2v2.4h-1.19v6h1.19v2.4h1.2v1.2h1.2v1.19h9.6v-1.19h1.2v-1.2s0 0 0 0h1.2v-3.6h-3.6v1.2s0 0 0 0h-1.2v1.2s-2.4 0-2.4 0v-1.2h-1.2v-2.4h-1.2v-1.2h9.6v-4.8h-1.2v-1.2h-1.2zm-6 3.61h1.2s-1.2 0-1.2 0z" fill="#fff"/><path d="m38.99 10.79v1.2h1.2v1.2h1.2v9.6h1.2v1.19h-3.6v-1.19h-2.39v-1.2h1.19v-4.8h-1.19v-1.19h1.19v-2.4h-1.19v-1.2h-2.4v1.2h-1.2v1.2h-3.6v-1.2h1.19v-1.2h1.2v-1.2h7.2m-2.39 5.99v1.2h-2.4v1.2h-1.2v2.4h1.2v1.2h2.4v1.19h-4.8v-1.19h-1.2v-1.2h-1.19v-2.4h1.19v-1.2h2.4v-1.2zm3.59-7.2h-9.6v1.2s0 0 0 0h-1.2v1.2s-1.19 0-1.19 0v3.6h3.6v1.19s-1.2 0-1.2 0h-1.2v1.2s-1.19 0-1.19 0v4.8h1.19v1.2h1.2v1.19h13.2v-3.59h-1.2v-9.6h-1.2v-1.2h-1.2v-1.2zm-4.8 3.61v1.2h1.19s-1.19 0-1.19 0v1.19h-1.2v-1.19s0 0 0 0h1.2zm0 5.99h1.2v1.2h-1.19v1.2s0 0 0 0v-1.2h-1.2s0 0 0 0h1.2v-1.2z" fill="#fff"/><path d="m54.59 10.79v1.2h1.2v1.2h1.2v1.2h-3.6v-1.2h-1.2v-1.2h-3.6v1.2h-1.2v6h1.2v2.4h1.2v1.2h4.8v1.19h-7.2v-1.19h-1.2v-1.2h-1.2v-2.4h-1.19v-3.6h1.19v-2.4h1.2v-1.2h1.2v-1.2zm2.41 9.61v1.2h-1.2v-1.2zm-1.21 1.2v1.2h-1.2v-1.2zm0-12.01h-9.6v1.2s0 0 0 0h-1.2v1.2s0 0 0 0h-1.2v2.4h-1.19v6h1.19v2.4h1.2v1.2h1.2v1.19h9.6v-1.19h1.2v-1.2s0 0 0 0h1.2v-3.6h-3.6v1.2s0 0 0 0h-1.2v1.2s-2.4 0-2.4 0v-1.2h-1.2v-2.4h-1.2v-3.6h1.2v-1.2s1.2 0 1.2 0v1.2h1.2v1.2h6v-3.6h-1.2v-1.2h-1.2z" fill="#fff"/><path d="m63.59 7.2v3.6h3.6v1.2h-3.6v10.8h2.4v1.19h-4.8v-1.19h-1.2v-10.8h-1.19v-1.2h1.19v-1.2h1.2v-1.19h1.2v-1.2h1.2m3.6 14.39v1.2h-1.19v-1.2zm-2.4-15.6h-3.6v1.2s0 0 0 0h-1.2v1.19h-1.2v1.2s-1.19 0-1.19 0v3.6h1.19v10.8h1.2v1.19h7.2v-1.19h1.19v-3.6h-3.59v1.2s0 0 0 0v-8.4h3.6v-3.6h-3.6v-3.6z" fill="#fff"/><path d="m79.19 15.6v1.79h-9.59v-1.79zm1.2-1.2h-11.99v4.19h11.99z" fill="#fff"/><path d="m86.39 7.2v3.6h3.6v1.2h-3.6v10.8h2.4v1.19h-4.8v-1.19h-1.2v-10.8h-1.19v-1.2h1.19v-1.2h1.2v-1.19h1.2v-1.2h1.2m3.59 14.39v1.2h-1.19v-1.2zm-2.39-15.6h-3.6v1.2s0 0 0 0h-1.2v1.19h-1.2v1.2s-1.19 0-1.19 0v3.6h1.19v10.8h1.2v1.19h7.2v-1.19h1.19v-3.6h-3.59v1.2s0 0 0 0v-8.4h3.6v-3.6h-3.6v-3.6z" fill="#fff"/><path d="m96.58 9.59v2.4h1.2v1.2h-1.2v9.6h1.2v1.19h-6v-1.19h1.19v-8.4h-1.19v-1.2h1.19v-1.2h1.2v-1.2h1.2v-1.2h1.2m6.01 1.2v1.2h1.2v2.4h-3.6v-2.4h-2.39v-1.2h4.8m-4.81-2.4h-3.6v1.2s0 0 0 0h-1.2v1.2s0 0 0 0h-1.2v1.2s-1.19 0-1.19 0v3.6h1.19v6h-1.19v3.59h8.4v-3.59h-1.2v-7.2h1.2v1.2h6v-4.8h-1.2v-1.2h-6v-1.2z" fill="#fff"/><path d="m110.38 9.59v2.4h1.2v1.2h-1.2v9.6h1.2v1.19h-6v-1.19h1.19v-8.4h-1.19v-1.2h1.19v-1.2h1.2v-1.2h1.2v-1.2h1.2m14.41 1.2v1.2h1.2v1.2h1.2v9.6h1.19v1.19h-6v-1.19h1.2v-9.6h-1.2v-1.2h-2.4v-1.2h4.8m-8.39-0v1.2h1.2v1.2h1.2v9.6h1.2v1.19h-6.01v-1.19h1.2v-9.6h-1.2v-1.2h-2.39v-1.2zm3.6 1.21v1.2h-1.2v-1.2zm-8.4-3.61h-3.6v1.2s0 0 0 0h-1.2v1.2s0 0 0 0h-1.2v1.2s-1.19 0-1.19 0v3.6h1.19v6h-1.19v3.59h25.19v-3.59h-1.19v-9.6h-1.2v-1.2h-1.2v-1.2h-7.2v1.2s0 0 0 0h-1.2v-1.2h-6v-1.2zm9.6 6.01h1.2v7.2h-2.4v-7.2zm-8.4 0h1.2v7.2h-2.4v-7.2z" fill="#fff"/><path d="m151.78 1.2v21.6h1.2v1.19h-6v-1.19h1.19v-16.8h-1.19v-1.2h1.19v-1.2h1.2v-1.2h1.2v-1.19h1.2m1.21-1.21h-3.6v1.19h-1.2v1.2s0 0 0 0h-1.2v1.2s-1.19 0-1.19 0v3.6h1.19v14.4h-1.19v3.59h8.4v-3.59h-1.2v-21.59z" fill="#fff"/><path d="m134.98 9.59v2.4h1.2v1.2h-1.2v9.6h1.2v1.19h-6v-1.19h1.19v-8.4h-1.19v-1.2h1.19v-1.2h1.2v-1.2h1.2v-1.2h1.2m6.61 1.2v1.2h1.2v1.2h1.2v9.6h1.2v1.19h-6.01v-1.19h1.2v-9.6h-1.2v-1.2h-3v-1.2h5.4m-5.39-2.4h-3.6v1.2s0 0 0 0h-1.2v1.2s0 0 0 0h-1.2v1.2s-1.19 0-1.19 0v3.6h1.19v6h-1.19v3.59h8.4v-3.59h-1.2v-7.2h1.2v-1.2s.6 0 .6 0v1.2h1.2v7.2h-1.2v3.59h8.41v-3.59h-1.2v-9.6h-1.2v-1.2h-1.2v-1.2h-6.6v-1.2z" fill="#fff"/><path d="m152.98 22.8h-1.2v-21.6h-1.2v1.19h-1.2v1.2h-1.2v1.2h-1.19v1.2h1.19v16.8h-1.19v1.19h6v-1.19z"/><path d="m136.18 22.8h-1.2v-9.6h1.2v-1.2h-1.2v-2.4h-1.2v1.2h-1.2v1.2h-1.2v1.2h-1.19v1.2h1.19v8.4h-1.19v1.19h6v-1.19zm9 0h-1.2v-9.6h-1.2v-1.2h-1.2v-1.2h-5.4v1.2h3v1.2h1.2v9.6h-1.2v1.19h6.01v-1.19z"/><path d="m111.58 22.8h-1.2v-9.6h1.2v-1.2h-1.2v-2.4h-1.2v1.2h-1.2v1.2h-1.2v1.2h-1.19v1.2h1.19v8.4h-1.19v1.19h6v-1.19zm8.4 0h-1.2v-9.6h-1.2v-1.2h-1.2v-1.2h-4.8v1.2h2.39v1.2h1.2v9.6h-1.2v1.19h6.01zm8.4 0h-1.19v-9.6h-1.2v-1.2h-1.2v-1.2h-4.8v1.2h2.4v1.2h1.2v9.6h-1.2v1.19h6v-1.19zm-8.4-10.8h-1.2v1.2h1.2z"/><path d="m97.78 22.8h-1.2v-9.6h1.2v-1.2h-1.2v-2.4h-1.2v1.2h-1.2v1.2h-1.2v1.2h-1.19v1.2h1.19v8.4h-1.19v1.19h6v-1.19zm6-10.8h-1.2v-1.2h-4.8v1.2h2.39v2.4h3.6v-2.4z"/><path d="m88.79 22.8h-2.4v-10.8h3.6v-1.2h-3.6v-3.6h-1.2v1.2h-1.2v1.19h-1.2v1.2h-1.19v1.2h1.19v10.8h1.2v1.19h4.8v-1.19zm1.19-1.2h-1.19v1.2h1.19z"/><path d="m79.19 15.6h-9.59v1.79h9.59z"/><path d="m66 22.8h-2.4v-10.8h3.6v-1.2h-3.6v-3.6h-1.2v1.2h-1.2v1.19h-1.2v1.2h-1.19v1.2h1.19v10.8h1.2v1.19h4.8v-1.19zm1.19-1.2h-1.19v1.2h1.19z"/><path d="m54.59 22.8h-4.8v-1.2h-1.2v-2.4h-1.2v-6h1.2v-1.2h3.6v1.2h1.2v1.2h3.6v-1.2h-1.2v-1.2h-1.2v-1.2h-7.2v1.2h-1.2v1.2h-1.2v2.4h-1.19v3.6h1.19v2.4h1.2v1.2h1.2v1.19h7.2zm2.41-2.4h-1.2v1.2h1.2zm-1.21 1.2h-1.2v1.2h1.2z"/><path d="m42.6 22.8h-1.2v-9.6h-1.2v-1.2h-1.2v-1.2h-7.2v1.2h-1.2v1.2h-1.19v1.2h3.6v-1.2h1.2v-1.2h2.4v1.2h1.19v2.4h-1.19v1.19h1.19v4.8h-1.19v1.2h2.4v1.19h3.6v-1.19zm-6 0h-2.4v-1.2h-1.2v-2.4h1.2v-1.2h2.4v-1.2h-3.6v1.2h-2.4v1.2h-1.19v2.4h1.19v1.2h1.2v1.19h4.8z"/><path d="m25.19 22.8h-4.8v-1.2h-1.2v-2.4h-1.2v-3.6h9.6v-2.4h-1.2v-1.2h-1.2v-1.2h-7.2v1.2h-1.2v1.2h-1.2v2.4h-1.19v3.6h1.19v2.4h1.2v1.2h1.2v1.19h7.2zm-7.2-9.6h1.2v-1.2h3.6v1.2h1.2v1.2h-6zm9.61 7.2h-1.2v1.2h1.2zm-1.21 1.2h-1.2v1.2h1.2z"/><path d="m7.2 22.8h-1.2v-9.6h1.2v-1.2h-1.2v-2.4h-1.2v1.2h-1.2v1.2h-1.2v1.2h-1.19v1.2h1.19v8.4h-1.19v1.19h6v-1.19zm6-10.8h-1.2v-1.2h-4.8v1.2h2.4v2.4h3.6z"/></svg>